<?xml version="1.0" standalone="no"?>
<!DOCTYPE svg PUBLIC "-//W3C//DTD SVG 20010904//EN"
 "http://www.w3.org/TR/2001/REC-SVG-20010904/DTD/svg10.dtd">
<svg version="1.0" xmlns="http://www.w3.org/2000/svg"
 width="200.000000pt" height="200.000000pt" viewBox="0 0 200.000000 200.000000"
 preserveAspectRatio="xMidYMid meet">

<g transform="translate(0.000000,200.000000) scale(0.100000,-0.100000)"
fill="#000000" stroke="none">
<path d="M1 1328 l0 -673 86 345 c46 190 89 362 94 383 l10 37 139 0 c138 0
140 0 140 -22 0 -13 5 -75 11 -138 6 -63 16 -207 22 -319 l12 -204 44 109 c24
60 94 214 155 342 l110 232 139 0 139 0 -6 -67 c-4 -38 -10 -77 -13 -88 -3
-13 7 -6 28 19 46 54 140 113 224 139 100 31 260 30 368 -3 43 -13 80 -27 83
-32 5 -7 -61 -204 -72 -217 -1 -1 -29 6 -61 17 -130 45 -256 37 -312 -19 -49
-48 -48 -110 1 -159 25 -25 140 -100 153 -100 3 0 13 17 24 38 11 20 36 50 56
66 36 28 40 28 113 22 86 -8 121 -23 175 -74 43 -42 47 -73 21 -153 -12 -35
-34 -68 -75 -109 -32 -33 -65 -60 -73 -60 -10 0 -15 -22 -18 -84 -7 -110 -41
-187 -112 -254 -94 -89 -183 -122 -348 -129 -125 -6 -204 4 -293 38 -90 35
-89 33 -50 134 19 49 35 90 35 92 0 2 -38 3 -85 3 -84 0 -85 0 -85 25 0 32 86
607 99 666 19 82 11 74 -39 -36 -27 -60 -107 -228 -177 -372 l-128 -262 -81
-1 -81 0 -7 68 c-10 114 -34 431 -42 555 -4 65 -8 116 -10 115 -1 -2 -23 -95
-48 -208 -24 -113 -61 -272 -80 -355 -20 -82 -38 -160 -41 -172 -5 -21 -11
-23 -75 -23 l-70 0 0 -220 0 -220 1000 0 1000 0 -4 597 c-2 329 -4 607 -5 618
0 11 2 109 5 218 l6 197 -27 -10 c-68 -26 -133 -5 -180 56 -54 71 -66 153 -26
187 35 31 128 56 180 50 l51 -6 0 47 0 46 -1000 0 -1000 0 1 -672z"/>
<path d="M1040 935 c0 -5 -14 -110 -31 -234 -34 -257 -40 -234 60 -272 37 -14
89 -23 153 -27 85 -4 102 -2 142 18 55 26 76 61 76 124 0 61 -29 93 -149 163
-108 64 -180 127 -223 192 -15 25 -28 41 -28 36z"/>
</g>
</svg>
