<?xml version="1.0" standalone="no"?>
<!DOCTYPE svg PUBLIC "-//W3C//DTD SVG 20010904//EN"
 "http://www.w3.org/TR/2001/REC-SVG-20010904/DTD/svg10.dtd">
<svg version="1.0" xmlns="http://www.w3.org/2000/svg"
 width="225.000000pt" height="225.000000pt" viewBox="0 0 225.000000 225.000000"
 preserveAspectRatio="xMidYMid meet">

<g transform="translate(0.000000,225.000000) scale(0.100000,-0.100000)"
fill="#000000" stroke="none">
<path d="M20 1391 c0 -49 1 -50 33 -53 l32 -3 5 -216 c5 -215 5 -216 33 -257
67 -101 239 -122 333 -40 65 58 68 71 74 303 l5 210 33 3 c31 3 32 4 32 53 l0
49 -120 0 -120 0 0 -50 c0 -47 2 -50 25 -50 l25 0 0 -185 c0 -197 -7 -232 -49
-255 -38 -20 -91 -12 -121 18 -35 36 -42 86 -38 277 l3 140 28 3 c25 3 27 6
27 53 l0 49 -120 0 -120 0 0 -49z"/>
<path d="M650 1390 l0 -50 35 0 35 0 0 -230 0 -230 -35 0 -35 0 0 -55 0 -55
130 0 130 0 0 55 0 55 -35 0 -35 0 0 230 0 230 35 0 35 0 0 50 0 50 -130 0
-130 0 0 -50z"/>
<path d="M960 1391 c0 -49 1 -50 33 -53 l32 -3 3 -227 2 -228 -35 0 -35 0 0
-55 0 -55 130 0 130 0 0 55 0 55 -35 0 -35 0 1 208 0 207 62 -177 62 -178 42
0 c24 0 43 1 43 3 0 13 113 324 121 332 5 5 9 -67 9 -193 l0 -202 -40 0 -40 0
0 -55 0 -55 130 0 130 0 0 55 c0 54 0 55 -30 55 l-30 0 0 230 0 230 30 0 c29
0 30 1 30 50 l0 51 -126 -3 -126 -3 -44 -125 c-25 -69 -47 -131 -49 -139 -8
-22 -15 -10 -65 131 l-47 133 -126 3 -127 3 0 -50z"/>
<path d="M1730 1391 c0 -49 1 -50 33 -53 l32 -3 3 -227 2 -228 -35 0 -35 0 0
-55 0 -55 130 0 130 0 0 55 0 55 -35 0 -35 0 0 59 0 58 80 6 c45 4 97 14 116
23 128 61 155 274 45 367 -47 39 -90 47 -268 47 l-163 0 0 -49z m329 -75 c58
-30 69 -119 22 -167 -27 -26 -36 -29 -95 -29 l-66 0 0 105 0 105 55 0 c31 0
68 -6 84 -14z"/>
</g>
</svg>
