<?xml version="1.0" encoding="UTF-8"?>
<svg xmlns="http://www.w3.org/2000/svg" xmlns:xlink="http://www.w3.org/1999/xlink" width="213.73pt" height="213.73pt" viewBox="0 0 213.73 213.73" version="1.1">
<defs>
<clipPath id="clip1">
  <path d="M 35 186 L 37 186 L 37 213.730469 L 35 213.730469 Z M 35 186 "/>
</clipPath>
<clipPath id="clip2">
  <path d="M 186 35 L 213.730469 35 L 213.730469 37 L 186 37 Z M 186 35 "/>
</clipPath>
<clipPath id="clip3">
  <path d="M 186 177 L 213.730469 177 L 213.730469 178 L 186 178 Z M 186 177 "/>
</clipPath>
<clipPath id="clip4">
  <path d="M 177 186 L 178 186 L 178 213.730469 L 177 213.730469 Z M 177 186 "/>
</clipPath>
</defs>
<g id="surface1">
<path style=" stroke:none;fill-rule:nonzero;fill:rgb(70.587158%,18.03894%,20.391846%);fill-opacity:1;" d="M 35.289063 178.4375 L 178.441406 178.4375 L 178.441406 35.285156 L 35.289063 35.285156 Z M 35.289063 178.4375 "/>
<path style=" stroke:none;fill-rule:nonzero;fill:rgb(100%,100%,100%);fill-opacity:1;" d="M 91.804688 66.609375 C 88.507813 66.609375 85.832031 69.28125 85.832031 72.578125 C 85.832031 75.875 88.507813 78.550781 91.804688 78.550781 C 95.101563 78.550781 97.777344 75.875 97.777344 72.578125 C 97.777344 69.28125 95.101563 66.609375 91.804688 66.609375 "/>
<path style=" stroke:none;fill-rule:nonzero;fill:rgb(100%,100%,100%);fill-opacity:1;" d="M 121.519531 66.609375 C 118.222656 66.609375 115.550781 69.28125 115.550781 72.578125 C 115.550781 75.875 118.222656 78.550781 121.519531 78.550781 C 124.820313 78.550781 127.492188 75.875 127.492188 72.578125 C 127.492188 69.28125 124.820313 66.609375 121.519531 66.609375 "/>
<path style=" stroke:none;fill-rule:nonzero;fill:rgb(100%,100%,100%);fill-opacity:1;" d="M 121.519531 86.140625 C 114.035156 86.140625 107.960938 80.066406 107.960938 72.578125 C 107.960938 65.089844 114.035156 59.019531 121.519531 59.019531 C 129.007813 59.019531 135.085938 65.089844 135.085938 72.578125 C 135.085938 80.066406 129.007813 86.140625 121.519531 86.140625 Z M 105.753906 100.613281 C 97.6875 88.964844 106.351563 81.796875 106.351563 81.796875 C 108.742188 84.777344 113.824219 94.640625 105.753906 100.613281 Z M 91.804688 86.140625 C 84.316406 86.140625 78.246094 80.066406 78.246094 72.578125 C 78.246094 65.089844 84.316406 59.019531 91.804688 59.019531 C 99.292969 59.019531 105.367188 65.089844 105.367188 72.578125 C 105.367188 80.066406 99.292969 86.140625 91.804688 86.140625 Z M 128.863281 49.96875 L 85.171875 49.96875 C 80.757813 49.96875 77.09375 47.648438 77.09375 43.691406 L 77.070313 43.691406 L 77.070313 101.339844 L 136.78125 101.339844 L 136.78125 43.703125 C 136.289063 47.238281 132.933594 49.96875 128.863281 49.96875 "/>
<path style=" stroke:none;fill-rule:nonzero;fill:rgb(100%,100%,100%);fill-opacity:1;" d="M 120.328125 103.640625 C 116.128906 102.917969 109.1875 103.839844 107.097656 105.117188 C 106.085938 105.011719 105.28125 104.511719 104.421875 104.277344 C 102.445313 103.734375 97.949219 103.046875 94.976563 103.503906 C 93.566406 103.710938 92.113281 103.804688 90.855469 104.132813 C 86.617188 105.246094 83.433594 106.46875 77.070313 106.382813 C 77.070313 107.390625 77.070313 108.398438 77.070313 109.414063 C 81.179688 109.398438 84.652344 109.199219 87.636719 108.429688 C 89.945313 107.828125 92.050781 107.03125 94.640625 106.59375 C 99.3125 105.8125 105.097656 107.460938 106.761719 109.0625 C 107.898438 108.910156 110.183594 106.71875 115.542969 106.457031 C 118.671875 106 122.496094 107.421875 124.328125 107.933594 C 127.804688 108.898438 131.707031 109.472656 136.78125 109.414063 C 136.78125 108.398438 136.78125 107.390625 136.78125 106.386719 C 133.257813 106.378906 130.320313 106.203125 127.777344 105.539063 C 125.328125 104.902344 123.113281 104.117188 120.328125 103.640625 "/>
<path style=" stroke:none;fill-rule:nonzero;fill:rgb(100%,100%,100%);fill-opacity:1;" d="M 116.324219 110.050781 C 115.429688 110.066406 114.542969 110.09375 113.65625 110.113281 C 112.152344 110.332031 110.644531 110.519531 109.316406 110.886719 C 108.492188 111.113281 107.742188 111.558594 106.871094 111.734375 C 104.945313 110.542969 98.097656 109.496094 93.96875 110.183594 C 88.21875 111.144531 84.597656 113.09375 77.070313 113.003906 C 77.070313 114.007813 77.070313 115.019531 77.070313 116.027344 C 81.078125 116.015625 84.601563 115.808594 87.523438 115.039063 C 89.664063 114.484375 91.695313 113.726563 93.96875 113.285156 C 98.882813 112.324219 105.054688 113.972656 106.871094 115.675781 C 107.820313 115.457031 108.75 114.554688 109.652344 114.199219 C 111.160156 113.597656 112.980469 113.367188 114.992188 113.070313 C 115.789063 112.953125 117.25 113.054688 117.875 113.144531 C 118.644531 113.253906 119.175781 113.148438 119.878906 113.285156 C 121.59375 113.621094 123.125 114.199219 124.660156 114.621094 C 128.011719 115.542969 131.964844 116.085938 136.78125 116.027344 C 136.78125 115.019531 136.78125 114.007813 136.78125 113.003906 C 132.363281 112.976563 129.078125 112.515625 125.996094 111.660156 C 123.117188 110.863281 120.660156 110.050781 116.324219 110.050781 "/>
<path style=" stroke:none;fill-rule:nonzero;fill:rgb(100%,100%,100%);fill-opacity:1;" d="M 116.660156 116.660156 C 115.949219 116.660156 115.25 116.660156 114.542969 116.660156 C 112.671875 116.917969 110.894531 117.078125 109.316406 117.507813 C 108.492188 117.730469 107.742188 118.167969 106.871094 118.351563 C 104.929688 117.15625 98.039063 116.101563 93.863281 116.800781 C 90.730469 117.320313 88.402344 118.085938 85.523438 118.769531 C 83.710938 119.199219 81.585938 119.292969 79.410156 119.617188 C 78.890625 119.691406 77.5 119.679688 77.1875 119.546875 C 77.148438 119.546875 77.105469 119.546875 77.070313 119.546875 C 77.070313 120.554688 77.070313 121.5625 77.070313 122.570313 C 81.210938 122.5625 84.652344 122.367188 87.636719 121.589844 C 89.804688 121.019531 91.832031 120.253906 94.195313 119.828125 C 98.992188 118.960938 104.976563 120.5 106.761719 122.222656 C 107.882813 122.070313 108.65625 121.183594 109.539063 120.8125 C 111.214844 120.109375 113.226563 119.953125 115.542969 119.617188 C 118.636719 119.164063 122.511719 120.59375 124.328125 121.097656 C 127.8125 122.0625 131.695313 122.632813 136.78125 122.570313 C 136.78125 121.589844 136.78125 120.605469 136.78125 119.617188 C 132.257813 119.589844 128.917969 119.082031 125.769531 118.210938 C 123.078125 117.460938 120.703125 116.660156 116.660156 116.660156 "/>
<path style=" stroke:none;fill-rule:nonzero;fill:rgb(100%,100%,100%);fill-opacity:1;" d="M 132 126.089844 C 131.253906 126.019531 130.515625 125.953125 129.777344 125.878906 C 126.859375 125.277344 124.417969 124.449219 121.546875 123.769531 C 120.59375 123.539063 117.464844 122.988281 115.988281 123.207031 C 114.53125 123.417969 113.097656 123.425781 111.984375 123.84375 C 110.695313 124.316406 108.488281 125.757813 105.980469 125.320313 C 104.089844 124.992188 102.832031 124.019531 101.085938 123.558594 C 100.132813 123.308594 99.261719 123.445313 98.085938 123.273438 C 97.441406 123.179688 96.242188 123.152344 95.417969 123.273438 C 93.613281 123.542969 91.800781 123.703125 90.195313 124.125 C 86.316406 125.132813 82.394531 126.277344 77.070313 126.164063 C 77.070313 127.171875 77.070313 128.183594 77.070313 129.195313 C 82.789063 129.324219 86.492188 128.371094 90.523438 127.289063 C 91.917969 126.917969 96.007813 125.859375 98.3125 126.230469 C 101.148438 126.691406 104.003906 128.929688 107.984375 128.34375 C 109.742188 128.085938 111.125 127.808594 112.425781 127.289063 C 113.71875 126.773438 115.496094 125.847656 118.101563 126.230469 C 121.1875 126.691406 123.164063 127.527344 125.769531 128.203125 C 128.746094 128.980469 132.460938 129.234375 136.667969 129.195313 C 136.667969 128.183594 136.667969 127.171875 136.667969 126.164063 C 135.46875 126.410156 133.074219 126.257813 132 126.089844 "/>
<path style=" stroke:none;fill-rule:nonzero;fill:rgb(100%,100%,100%);fill-opacity:1;" d="M 86.226563 165.359375 L 86.226563 170.027344 L 97.5 170.027344 L 97.5 165.359375 L 94.640625 165.359375 L 94.640625 146.488281 L 97.5 146.488281 L 97.5 141.796875 L 86.226563 141.796875 L 86.226563 146.488281 L 89.164063 146.488281 L 89.164063 165.359375 L 86.226563 165.359375 "/>
<path style=" stroke:none;fill-rule:nonzero;fill:rgb(100%,100%,100%);fill-opacity:1;" d="M 71.4375 170.035156 C 74.089844 170.035156 76.566406 169.417969 78.546875 167.484375 C 80.792969 165.277344 81.292969 162.832031 81.292969 159.839844 L 81.292969 146.488281 L 84.230469 146.488281 L 84.230469 141.78125 L 73.378906 141.78125 L 73.378906 146.488281 L 75.855469 146.488281 L 75.855469 159.304688 C 75.855469 161.9375 75.132813 164.90625 71.429688 164.90625 C 67.726563 164.90625 67 161.9375 67 159.304688 L 67 146.488281 L 69.480469 146.488281 L 69.480469 141.78125 L 58.632813 141.78125 L 58.632813 146.488281 L 61.566406 146.488281 L 61.566406 159.839844 C 61.566406 162.832031 62.066406 165.277344 64.3125 167.484375 C 66.292969 169.417969 68.785156 170.035156 71.4375 170.035156 "/>
<path style=" stroke:none;fill-rule:evenodd;fill:rgb(100%,100%,100%);fill-opacity:1;" d="M 141.308594 155.398438 L 141.308594 146.703125 L 144.269531 146.703125 C 145.574219 146.703125 146.761719 146.746094 147.910156 147.578125 C 149.015625 148.324219 149.6875 149.632813 149.6875 151.015625 C 149.6875 152.320313 149.171875 153.582031 148.144531 154.453125 C 147.074219 155.363281 145.851563 155.398438 144.503906 155.398438 Z M 132.839844 141.804688 L 132.839844 146.488281 L 135.886719 146.488281 L 135.886719 165.347656 L 132.839844 165.347656 L 132.839844 170.011719 L 144.390625 170.011719 L 144.390625 165.347656 L 141.308594 165.347656 L 141.308594 160.265625 L 145.179688 160.265625 C 148.027344 160.265625 150.316406 159.75 152.375 157.652344 C 154.152344 155.917969 155.101563 153.5 155.101563 151.015625 C 155.101563 148.085938 153.996094 145.398438 151.625 143.664063 C 149.527344 142.121094 146.640625 141.804688 144.113281 141.804688 L 132.839844 141.804688 "/>
<path style=" stroke:none;fill-rule:nonzero;fill:rgb(100%,100%,100%);fill-opacity:1;" d="M 117.074219 162.9375 L 122.414063 148.320313 L 122.414063 165.363281 L 119.265625 165.363281 L 119.265625 170.027344 L 130.839844 170.027344 L 130.839844 165.363281 L 127.855469 165.363281 L 127.855469 146.503906 L 130.839844 146.503906 L 130.839844 141.796875 L 119.648438 141.796875 L 115.167969 154.007813 L 110.691406 141.796875 L 99.5 141.796875 L 99.5 146.503906 L 102.480469 146.503906 L 102.480469 165.363281 L 99.5 165.363281 L 99.5 170.027344 L 111.070313 170.027344 L 111.070313 165.363281 L 107.921875 165.363281 L 107.925781 148.320313 L 113.265625 162.9375 L 117.074219 162.9375 "/>
<path style="fill:none;stroke-width:5;stroke-linecap:butt;stroke-linejoin:miter;stroke:rgb(0%,0%,0%);stroke-opacity:1;stroke-miterlimit:4;" d="M 270 359.995312 L 0 359.995312 " transform="matrix(0.1,0,0,-0.1,0,213.73)"/>
<g clip-path="url(#clip1)" clip-rule="nonzero">
<path style="fill:none;stroke-width:5;stroke-linecap:butt;stroke-linejoin:miter;stroke:rgb(0%,0%,0%);stroke-opacity:1;stroke-miterlimit:4;" d="M 360 269.995312 L 360 -0.0046875 " transform="matrix(0.1,0,0,-0.1,0,213.73)"/>
</g>
<path style="fill:none;stroke-width:5;stroke-linecap:butt;stroke-linejoin:miter;stroke:rgb(0%,0%,0%);stroke-opacity:1;stroke-miterlimit:4;" d="M 270 1777.339062 L 0 1777.339062 " transform="matrix(0.1,0,0,-0.1,0,213.73)"/>
<path style="fill:none;stroke-width:5;stroke-linecap:butt;stroke-linejoin:miter;stroke:rgb(0%,0%,0%);stroke-opacity:1;stroke-miterlimit:4;" d="M 360 1867.339062 L 360 2137.339062 " transform="matrix(0.1,0,0,-0.1,0,213.73)"/>
<g clip-path="url(#clip2)" clip-rule="nonzero">
<path style="fill:none;stroke-width:5;stroke-linecap:butt;stroke-linejoin:miter;stroke:rgb(0%,0%,0%);stroke-opacity:1;stroke-miterlimit:4;" d="M 1867.304688 1777.339062 L 2137.304688 1777.339062 " transform="matrix(0.1,0,0,-0.1,0,213.73)"/>
</g>
<path style="fill:none;stroke-width:5;stroke-linecap:butt;stroke-linejoin:miter;stroke:rgb(0%,0%,0%);stroke-opacity:1;stroke-miterlimit:4;" d="M 1777.304688 1867.339062 L 1777.304688 2137.339062 " transform="matrix(0.1,0,0,-0.1,0,213.73)"/>
<g clip-path="url(#clip3)" clip-rule="nonzero">
<path style="fill:none;stroke-width:5;stroke-linecap:butt;stroke-linejoin:miter;stroke:rgb(0%,0%,0%);stroke-opacity:1;stroke-miterlimit:4;" d="M 1867.304688 359.995312 L 2137.304688 359.995312 " transform="matrix(0.1,0,0,-0.1,0,213.73)"/>
</g>
<g clip-path="url(#clip4)" clip-rule="nonzero">
<path style="fill:none;stroke-width:5;stroke-linecap:butt;stroke-linejoin:miter;stroke:rgb(0%,0%,0%);stroke-opacity:1;stroke-miterlimit:4;" d="M 1777.304688 269.995312 L 1777.304688 -0.0046875 " transform="matrix(0.1,0,0,-0.1,0,213.73)"/>
</g>
</g>
</svg>
